<svg xmlns="http://www.w3.org/2000/svg" xmlns:xlink="http://www.w3.org/1999/xlink" width="500" zoomAndPan="magnify" viewBox="0 0 375 374.999991" height="500" preserveAspectRatio="xMidYMid meet" version="1.0"><path fill="#ffffff" d="M 181.6875 1.546875 C 182.574219 1.042969 183.507812 0.65625 184.492188 0.394531 C 185.476562 0.132812 186.480469 0.00390625 187.5 0.00390625 C 188.519531 0.00390625 189.523438 0.132812 190.507812 0.394531 C 191.492188 0.65625 192.425781 1.042969 193.3125 1.546875 L 281.203125 51.773438 C 282.101562 52.285156 282.914062 52.90625 283.648438 53.632812 C 284.378906 54.359375 285.007812 55.171875 285.523438 56.066406 C 286.042969 56.957031 286.4375 57.902344 286.707031 58.898438 C 286.972656 59.898438 287.109375 60.914062 287.109375 61.945312 L 287.109375 155.578125 L 369.09375 202.453125 C 369.988281 202.964844 370.800781 203.582031 371.53125 204.304688 C 372.261719 205.027344 372.886719 205.835938 373.402344 206.722656 C 373.921875 207.613281 374.316406 208.554688 374.585938 209.546875 C 374.859375 210.539062 374.996094 211.550781 375 212.578125 L 375 313.03125 C 375 314.0625 374.863281 315.078125 374.597656 316.078125 C 374.328125 317.074219 373.933594 318.019531 373.414062 318.910156 C 372.898438 319.804688 372.269531 320.617188 371.539062 321.34375 C 370.804688 322.070312 369.992188 322.691406 369.09375 323.203125 L 281.203125 373.429688 C 280.316406 373.933594 279.382812 374.320312 278.398438 374.582031 C 277.414062 374.84375 276.410156 374.972656 275.390625 374.972656 C 274.371094 374.972656 273.367188 374.84375 272.382812 374.582031 C 271.398438 374.320312 270.464844 373.933594 269.578125 373.429688 L 187.5 326.554688 L 105.421875 373.453125 C 104.535156 373.957031 103.601562 374.34375 102.617188 374.605469 C 101.632812 374.867188 100.628906 374.996094 99.609375 374.996094 C 98.589844 374.996094 97.585938 374.867188 96.601562 374.605469 C 95.617188 374.34375 94.683594 373.957031 93.796875 373.453125 L 5.90625 323.226562 C 5.007812 322.714844 4.195312 322.09375 3.460938 321.367188 C 2.730469 320.640625 2.101562 319.828125 1.585938 318.933594 C 1.066406 318.042969 0.671875 317.097656 0.402344 316.101562 C 0.136719 315.101562 0 314.085938 0 313.054688 L 0 212.601562 C 0 211.570312 0.136719 210.554688 0.402344 209.554688 C 0.671875 208.558594 1.066406 207.613281 1.585938 206.722656 C 2.101562 205.828125 2.730469 205.015625 3.460938 204.289062 C 4.195312 203.5625 5.007812 202.941406 5.90625 202.429688 L 87.890625 155.578125 L 87.890625 61.945312 C 87.890625 60.914062 88.027344 59.898438 88.292969 58.898438 C 88.5625 57.902344 88.957031 56.957031 89.476562 56.066406 C 89.992188 55.171875 90.621094 54.359375 91.351562 53.632812 C 92.085938 52.90625 92.898438 52.285156 93.796875 51.773438 Z M 99.609375 175.875 L 35.34375 212.601562 L 99.609375 249.328125 L 163.875 212.601562 Z M 175.78125 232.804688 L 111.328125 269.625 L 111.328125 343.078125 L 175.78125 306.257812 Z M 199.21875 306.257812 L 263.671875 343.078125 L 263.671875 269.625 L 199.21875 232.804688 Z M 211.125 212.601562 L 275.390625 249.328125 L 339.65625 212.601562 L 275.390625 175.875 Z M 263.671875 155.578125 L 263.671875 82.125 L 199.21875 118.96875 L 199.21875 192.421875 Z M 175.78125 192.421875 L 175.78125 118.96875 L 111.328125 82.125 L 111.328125 155.578125 Z M 123.234375 61.945312 L 187.5 98.671875 L 251.765625 61.945312 L 187.5 25.21875 Z M 351.5625 232.804688 L 287.109375 269.625 L 287.109375 343.078125 L 351.5625 306.257812 Z M 87.890625 343.078125 L 87.890625 269.625 L 23.4375 232.804688 L 23.4375 306.257812 Z M 87.890625 343.078125 " fill-opacity="1" fill-rule="nonzero"/></svg>