<svg xmlns="http://www.w3.org/2000/svg" xmlns:xlink="http://www.w3.org/1999/xlink" width="500" zoomAndPan="magnify" viewBox="0 0 375 374.999991" height="500" preserveAspectRatio="xMidYMid meet" version="1.0"><path fill="#ffffff" d="M 328.125 23.4375 C 328.894531 23.4375 329.660156 23.476562 330.421875 23.550781 C 331.1875 23.625 331.945312 23.738281 332.699219 23.886719 C 333.449219 24.039062 334.195312 24.222656 334.929688 24.445312 C 335.664062 24.667969 336.386719 24.929688 337.09375 25.222656 C 337.804688 25.515625 338.496094 25.84375 339.171875 26.203125 C 339.851562 26.566406 340.507812 26.960938 341.144531 27.386719 C 341.785156 27.8125 342.398438 28.269531 342.992188 28.757812 C 343.585938 29.246094 344.15625 29.757812 344.699219 30.300781 C 345.242188 30.84375 345.753906 31.414062 346.242188 32.007812 C 346.730469 32.601562 347.1875 33.214844 347.613281 33.855469 C 348.039062 34.492188 348.433594 35.148438 348.796875 35.828125 C 349.15625 36.503906 349.484375 37.195312 349.777344 37.90625 C 350.070312 38.613281 350.332031 39.335938 350.554688 40.070312 C 350.777344 40.804688 350.960938 41.550781 351.113281 42.300781 C 351.261719 43.054688 351.375 43.8125 351.449219 44.578125 C 351.523438 45.339844 351.5625 46.105469 351.5625 46.875 L 351.5625 328.125 C 351.5625 328.894531 351.523438 329.660156 351.449219 330.421875 C 351.375 331.1875 351.261719 331.945312 351.113281 332.699219 C 350.960938 333.449219 350.777344 334.195312 350.554688 334.929688 C 350.332031 335.664062 350.070312 336.386719 349.777344 337.09375 C 349.484375 337.804688 349.15625 338.496094 348.796875 339.171875 C 348.433594 339.851562 348.039062 340.507812 347.613281 341.144531 C 347.1875 341.785156 346.730469 342.398438 346.242188 342.992188 C 345.753906 343.585938 345.242188 344.15625 344.699219 344.699219 C 344.15625 345.242188 343.585938 345.753906 342.992188 346.242188 C 342.398438 346.730469 341.785156 347.1875 341.144531 347.613281 C 340.507812 348.039062 339.851562 348.433594 339.171875 348.796875 C 338.496094 349.15625 337.804688 349.484375 337.09375 349.777344 C 336.386719 350.070312 335.664062 350.332031 334.929688 350.554688 C 334.195312 350.777344 333.449219 350.960938 332.699219 351.113281 C 331.945312 351.261719 331.1875 351.375 330.421875 351.449219 C 329.660156 351.523438 328.894531 351.5625 328.125 351.5625 L 46.875 351.5625 C 46.105469 351.5625 45.339844 351.523438 44.578125 351.449219 C 43.8125 351.375 43.054688 351.261719 42.300781 351.113281 C 41.550781 350.960938 40.804688 350.777344 40.070312 350.554688 C 39.335938 350.332031 38.613281 350.070312 37.90625 349.777344 C 37.195312 349.484375 36.503906 349.15625 35.828125 348.796875 C 35.148438 348.433594 34.492188 348.039062 33.855469 347.613281 C 33.214844 347.1875 32.601562 346.730469 32.007812 346.242188 C 31.414062 345.753906 30.84375 345.242188 30.300781 344.699219 C 29.757812 344.15625 29.246094 343.585938 28.757812 342.992188 C 28.269531 342.398438 27.8125 341.785156 27.386719 341.144531 C 26.960938 340.507812 26.566406 339.851562 26.203125 339.171875 C 25.84375 338.496094 25.515625 337.804688 25.222656 337.09375 C 24.929688 336.386719 24.667969 335.664062 24.445312 334.929688 C 24.222656 334.195312 24.039062 333.449219 23.886719 332.699219 C 23.738281 331.945312 23.625 331.1875 23.550781 330.421875 C 23.476562 329.660156 23.4375 328.894531 23.4375 328.125 L 23.4375 46.875 C 23.4375 46.105469 23.476562 45.339844 23.550781 44.578125 C 23.625 43.8125 23.738281 43.054688 23.886719 42.300781 C 24.039062 41.550781 24.222656 40.804688 24.445312 40.070312 C 24.667969 39.335938 24.929688 38.613281 25.222656 37.90625 C 25.515625 37.195312 25.84375 36.503906 26.203125 35.828125 C 26.566406 35.148438 26.960938 34.492188 27.386719 33.855469 C 27.8125 33.214844 28.269531 32.601562 28.757812 32.007812 C 29.246094 31.414062 29.757812 30.84375 30.300781 30.300781 C 30.84375 29.757812 31.414062 29.246094 32.007812 28.757812 C 32.601562 28.269531 33.214844 27.8125 33.855469 27.386719 C 34.492188 26.960938 35.148438 26.566406 35.828125 26.203125 C 36.503906 25.84375 37.195312 25.515625 37.90625 25.222656 C 38.613281 24.929688 39.335938 24.667969 40.070312 24.445312 C 40.804688 24.222656 41.550781 24.039062 42.300781 23.886719 C 43.054688 23.738281 43.8125 23.625 44.578125 23.550781 C 45.339844 23.476562 46.105469 23.4375 46.875 23.4375 Z M 46.875 0 C 45.339844 0 43.808594 0.0742188 42.28125 0.226562 C 40.753906 0.375 39.234375 0.601562 37.730469 0.902344 C 36.222656 1.199219 34.738281 1.574219 33.269531 2.019531 C 31.796875 2.464844 30.355469 2.980469 28.9375 3.566406 C 27.519531 4.15625 26.132812 4.8125 24.777344 5.535156 C 23.425781 6.257812 22.109375 7.046875 20.832031 7.898438 C 19.554688 8.753906 18.324219 9.667969 17.136719 10.640625 C 15.949219 11.613281 14.816406 12.644531 13.730469 13.730469 C 12.644531 14.816406 11.613281 15.949219 10.640625 17.136719 C 9.667969 18.324219 8.753906 19.554688 7.898438 20.832031 C 7.046875 22.109375 6.257812 23.425781 5.535156 24.777344 C 4.8125 26.132812 4.15625 27.519531 3.566406 28.9375 C 2.980469 30.355469 2.464844 31.796875 2.019531 33.269531 C 1.574219 34.738281 1.199219 36.222656 0.902344 37.730469 C 0.601562 39.234375 0.375 40.753906 0.226562 42.28125 C 0.0742188 43.808594 0 45.339844 0 46.875 L 0 328.125 C 0 329.660156 0.0742188 331.191406 0.226562 332.71875 C 0.375 334.246094 0.601562 335.765625 0.902344 337.269531 C 1.199219 338.777344 1.574219 340.261719 2.019531 341.730469 C 2.464844 343.199219 2.980469 344.644531 3.566406 346.0625 C 4.15625 347.480469 4.8125 348.867188 5.535156 350.222656 C 6.257812 351.574219 7.046875 352.890625 7.898438 354.167969 C 8.753906 355.445312 9.667969 356.675781 10.640625 357.863281 C 11.613281 359.050781 12.644531 360.183594 13.730469 361.269531 C 14.816406 362.355469 15.949219 363.386719 17.136719 364.359375 C 18.324219 365.332031 19.554688 366.246094 20.832031 367.101562 C 22.109375 367.953125 23.425781 368.742188 24.777344 369.464844 C 26.132812 370.1875 27.519531 370.84375 28.9375 371.433594 C 30.355469 372.019531 31.796875 372.535156 33.269531 372.980469 C 34.738281 373.425781 36.222656 373.800781 37.730469 374.097656 C 39.234375 374.398438 40.753906 374.625 42.28125 374.773438 C 43.808594 374.925781 45.339844 375 46.875 375 L 328.125 375 C 329.660156 375 331.191406 374.925781 332.71875 374.773438 C 334.246094 374.625 335.765625 374.398438 337.269531 374.097656 C 338.777344 373.800781 340.261719 373.425781 341.730469 372.980469 C 343.199219 372.535156 344.644531 372.019531 346.0625 371.433594 C 347.480469 370.84375 348.867188 370.1875 350.222656 369.464844 C 351.574219 368.742188 352.890625 367.953125 354.167969 367.101562 C 355.445312 366.246094 356.675781 365.332031 357.863281 364.359375 C 359.050781 363.386719 360.183594 362.355469 361.269531 361.269531 C 362.355469 360.183594 363.386719 359.050781 364.359375 357.863281 C 365.332031 356.675781 366.246094 355.445312 367.101562 354.167969 C 367.953125 352.890625 368.742188 351.574219 369.464844 350.222656 C 370.1875 348.867188 370.84375 347.480469 371.433594 346.0625 C 372.019531 344.644531 372.535156 343.199219 372.980469 341.730469 C 373.425781 340.261719 373.800781 338.777344 374.097656 337.269531 C 374.398438 335.765625 374.625 334.246094 374.773438 332.71875 C 374.925781 331.191406 375 329.660156 375 328.125 L 375 46.875 C 375 45.339844 374.925781 43.808594 374.773438 42.28125 C 374.625 40.753906 374.398438 39.234375 374.097656 37.730469 C 373.800781 36.222656 373.425781 34.738281 372.980469 33.269531 C 372.535156 31.796875 372.019531 30.355469 371.433594 28.9375 C 370.84375 27.519531 370.1875 26.132812 369.464844 24.777344 C 368.742188 23.425781 367.953125 22.109375 367.101562 20.832031 C 366.246094 19.554688 365.332031 18.324219 364.359375 17.136719 C 363.386719 15.949219 362.355469 14.816406 361.269531 13.730469 C 360.183594 12.644531 359.050781 11.613281 357.863281 10.640625 C 356.675781 9.667969 355.445312 8.753906 354.167969 7.898438 C 352.890625 7.046875 351.574219 6.257812 350.222656 5.535156 C 348.867188 4.8125 347.480469 4.15625 346.0625 3.566406 C 344.644531 2.980469 343.199219 2.464844 341.730469 2.019531 C 340.261719 1.574219 338.777344 1.199219 337.269531 0.902344 C 335.765625 0.601562 334.246094 0.375 332.71875 0.226562 C 331.191406 0.0742188 329.660156 0 328.125 0 Z M 46.875 0 " fill-opacity="1" fill-rule="nonzero"/><path fill="#ffffff" d="M 160.640625 108.890625 C 161.1875 109.433594 161.671875 110.027344 162.101562 110.667969 C 162.53125 111.308594 162.894531 111.984375 163.1875 112.695312 C 163.484375 113.40625 163.707031 114.140625 163.859375 114.898438 C 164.007812 115.652344 164.082031 116.417969 164.082031 117.1875 C 164.082031 117.957031 164.007812 118.722656 163.859375 119.476562 C 163.707031 120.234375 163.484375 120.96875 163.1875 121.679688 C 162.894531 122.390625 162.53125 123.066406 162.101562 123.707031 C 161.671875 124.347656 161.1875 124.941406 160.640625 125.484375 L 98.601562 187.5 L 160.640625 249.515625 C 161.183594 250.058594 161.671875 250.652344 162.101562 251.292969 C 162.527344 251.933594 162.890625 252.609375 163.183594 253.320312 C 163.480469 254.035156 163.703125 254.769531 163.851562 255.523438 C 164.003906 256.277344 164.078125 257.042969 164.078125 257.8125 C 164.078125 258.582031 164.003906 259.347656 163.851562 260.101562 C 163.703125 260.855469 163.480469 261.589844 163.183594 262.300781 C 162.890625 263.015625 162.527344 263.691406 162.101562 264.332031 C 161.671875 264.972656 161.183594 265.566406 160.640625 266.109375 C 160.097656 266.652344 159.503906 267.140625 158.863281 267.570312 C 158.222656 267.996094 157.546875 268.359375 156.832031 268.652344 C 156.121094 268.949219 155.386719 269.171875 154.632812 269.320312 C 153.878906 269.472656 153.113281 269.546875 152.34375 269.546875 C 151.574219 269.546875 150.808594 269.472656 150.054688 269.320312 C 149.300781 269.171875 148.566406 268.949219 147.851562 268.652344 C 147.140625 268.359375 146.464844 267.996094 145.824219 267.570312 C 145.183594 267.140625 144.589844 266.652344 144.046875 266.109375 L 73.734375 195.796875 C 73.1875 195.253906 72.703125 194.660156 72.273438 194.019531 C 71.84375 193.378906 71.480469 192.703125 71.1875 191.992188 C 70.890625 191.28125 70.667969 190.546875 70.515625 189.789062 C 70.367188 189.035156 70.292969 188.269531 70.292969 187.5 C 70.292969 186.730469 70.367188 185.964844 70.515625 185.210938 C 70.667969 184.453125 70.890625 183.71875 71.1875 183.007812 C 71.480469 182.296875 71.84375 181.621094 72.273438 180.980469 C 72.703125 180.339844 73.1875 179.746094 73.734375 179.203125 L 144.046875 108.890625 C 144.589844 108.34375 145.183594 107.859375 145.824219 107.429688 C 146.464844 107 147.140625 106.636719 147.851562 106.34375 C 148.5625 106.046875 149.296875 105.824219 150.054688 105.671875 C 150.808594 105.523438 151.574219 105.449219 152.34375 105.449219 C 153.113281 105.449219 153.878906 105.523438 154.632812 105.671875 C 155.390625 105.824219 156.125 106.046875 156.835938 106.34375 C 157.546875 106.636719 158.222656 107 158.863281 107.429688 C 159.503906 107.859375 160.097656 108.34375 160.640625 108.890625 M 214.359375 108.890625 C 213.8125 109.433594 213.328125 110.027344 212.898438 110.667969 C 212.46875 111.308594 212.105469 111.984375 211.8125 112.695312 C 211.515625 113.40625 211.292969 114.140625 211.140625 114.898438 C 210.992188 115.652344 210.917969 116.417969 210.917969 117.1875 C 210.917969 117.957031 210.992188 118.722656 211.140625 119.476562 C 211.292969 120.234375 211.515625 120.96875 211.8125 121.679688 C 212.105469 122.390625 212.46875 123.066406 212.898438 123.707031 C 213.328125 124.347656 213.8125 124.941406 214.359375 125.484375 L 276.398438 187.5 L 214.359375 249.515625 C 213.816406 250.058594 213.328125 250.652344 212.898438 251.292969 C 212.472656 251.933594 212.109375 252.609375 211.816406 253.320312 C 211.519531 254.035156 211.296875 254.769531 211.148438 255.523438 C 210.996094 256.277344 210.921875 257.042969 210.921875 257.8125 C 210.921875 258.582031 210.996094 259.347656 211.148438 260.101562 C 211.296875 260.855469 211.519531 261.589844 211.816406 262.300781 C 212.109375 263.015625 212.472656 263.691406 212.898438 264.332031 C 213.328125 264.972656 213.816406 265.566406 214.359375 266.109375 C 214.902344 266.652344 215.496094 267.140625 216.136719 267.570312 C 216.777344 267.996094 217.453125 268.359375 218.164062 268.652344 C 218.878906 268.949219 219.613281 269.171875 220.367188 269.320312 C 221.121094 269.472656 221.886719 269.546875 222.65625 269.546875 C 223.425781 269.546875 224.191406 269.472656 224.945312 269.320312 C 225.699219 269.171875 226.433594 268.949219 227.144531 268.652344 C 227.859375 268.359375 228.535156 267.996094 229.175781 267.570312 C 229.816406 267.140625 230.410156 266.652344 230.953125 266.109375 L 301.265625 195.796875 C 301.8125 195.253906 302.296875 194.660156 302.726562 194.019531 C 303.15625 193.378906 303.519531 192.703125 303.8125 191.992188 C 304.109375 191.28125 304.332031 190.546875 304.484375 189.789062 C 304.632812 189.035156 304.707031 188.269531 304.707031 187.5 C 304.707031 186.730469 304.632812 185.964844 304.484375 185.210938 C 304.332031 184.453125 304.109375 183.71875 303.8125 183.007812 C 303.519531 182.296875 303.15625 181.621094 302.726562 180.980469 C 302.296875 180.339844 301.8125 179.746094 301.265625 179.203125 L 230.953125 108.890625 C 230.410156 108.34375 229.816406 107.859375 229.175781 107.429688 C 228.535156 107 227.859375 106.636719 227.148438 106.34375 C 226.4375 106.046875 225.703125 105.824219 224.945312 105.671875 C 224.191406 105.523438 223.425781 105.449219 222.65625 105.449219 C 221.886719 105.449219 221.121094 105.523438 220.367188 105.671875 C 219.609375 105.824219 218.875 106.046875 218.164062 106.34375 C 217.453125 106.636719 216.777344 107 216.136719 107.429688 C 215.496094 107.859375 214.902344 108.34375 214.359375 108.890625 " fill-opacity="1" fill-rule="nonzero"/></svg>