<svg xmlns="http://www.w3.org/2000/svg" xmlns:xlink="http://www.w3.org/1999/xlink" width="500" zoomAndPan="magnify" viewBox="0 0 375 374.999991" height="500" preserveAspectRatio="xMidYMid meet" version="1.0"><path fill="#ffffff" d="M 316.40625 23.4375 C 317.175781 23.4375 317.941406 23.476562 318.703125 23.550781 C 319.46875 23.625 320.226562 23.738281 320.980469 23.886719 C 321.730469 24.039062 322.476562 24.222656 323.210938 24.445312 C 323.945312 24.667969 324.667969 24.929688 325.375 25.222656 C 326.085938 25.515625 326.777344 25.84375 327.453125 26.203125 C 328.132812 26.566406 328.789062 26.960938 329.425781 27.386719 C 330.066406 27.8125 330.679688 28.269531 331.273438 28.757812 C 331.867188 29.246094 332.4375 29.757812 332.980469 30.300781 C 333.523438 30.84375 334.035156 31.414062 334.523438 32.007812 C 335.011719 32.601562 335.46875 33.214844 335.894531 33.855469 C 336.320312 34.492188 336.714844 35.148438 337.078125 35.828125 C 337.4375 36.503906 337.765625 37.195312 338.058594 37.90625 C 338.351562 38.613281 338.613281 39.335938 338.835938 40.070312 C 339.058594 40.804688 339.242188 41.550781 339.394531 42.300781 C 339.542969 43.054688 339.65625 43.8125 339.730469 44.578125 C 339.804688 45.339844 339.84375 46.105469 339.84375 46.875 L 339.84375 328.125 C 339.84375 328.894531 339.804688 329.660156 339.730469 330.421875 C 339.65625 331.1875 339.542969 331.945312 339.394531 332.699219 C 339.242188 333.449219 339.058594 334.195312 338.835938 334.929688 C 338.613281 335.664062 338.351562 336.386719 338.058594 337.09375 C 337.765625 337.804688 337.4375 338.496094 337.078125 339.171875 C 336.714844 339.851562 336.320312 340.507812 335.894531 341.144531 C 335.46875 341.785156 335.011719 342.398438 334.523438 342.992188 C 334.035156 343.585938 333.523438 344.15625 332.980469 344.699219 C 332.4375 345.242188 331.867188 345.753906 331.273438 346.242188 C 330.679688 346.730469 330.066406 347.1875 329.425781 347.613281 C 328.789062 348.039062 328.132812 348.433594 327.453125 348.796875 C 326.777344 349.15625 326.085938 349.484375 325.375 349.777344 C 324.667969 350.070312 323.945312 350.332031 323.210938 350.554688 C 322.476562 350.777344 321.730469 350.960938 320.980469 351.113281 C 320.226562 351.261719 319.46875 351.375 318.703125 351.449219 C 317.941406 351.523438 317.175781 351.5625 316.40625 351.5625 L 58.59375 351.5625 C 57.824219 351.5625 57.058594 351.523438 56.296875 351.449219 C 55.53125 351.375 54.773438 351.261719 54.019531 351.113281 C 53.269531 350.960938 52.523438 350.777344 51.789062 350.554688 C 51.054688 350.332031 50.332031 350.070312 49.625 349.777344 C 48.914062 349.484375 48.222656 349.15625 47.546875 348.796875 C 46.867188 348.433594 46.210938 348.039062 45.574219 347.613281 C 44.933594 347.1875 44.320312 346.730469 43.726562 346.242188 C 43.132812 345.753906 42.5625 345.242188 42.019531 344.699219 C 41.476562 344.15625 40.964844 343.585938 40.476562 342.992188 C 39.988281 342.398438 39.53125 341.785156 39.105469 341.144531 C 38.679688 340.507812 38.285156 339.851562 37.921875 339.171875 C 37.5625 338.496094 37.234375 337.804688 36.941406 337.09375 C 36.648438 336.386719 36.386719 335.664062 36.164062 334.929688 C 35.941406 334.195312 35.757812 333.449219 35.605469 332.699219 C 35.457031 331.945312 35.34375 331.1875 35.269531 330.421875 C 35.195312 329.660156 35.15625 328.894531 35.15625 328.125 L 35.15625 46.875 C 35.15625 46.105469 35.195312 45.339844 35.269531 44.578125 C 35.34375 43.8125 35.457031 43.054688 35.605469 42.300781 C 35.757812 41.550781 35.941406 40.804688 36.164062 40.070312 C 36.386719 39.335938 36.648438 38.613281 36.941406 37.90625 C 37.234375 37.195312 37.5625 36.503906 37.921875 35.828125 C 38.285156 35.148438 38.679688 34.492188 39.105469 33.855469 C 39.53125 33.214844 39.988281 32.601562 40.476562 32.007812 C 40.964844 31.414062 41.476562 30.84375 42.019531 30.300781 C 42.5625 29.757812 43.132812 29.246094 43.726562 28.757812 C 44.320312 28.269531 44.933594 27.8125 45.574219 27.386719 C 46.210938 26.960938 46.867188 26.566406 47.546875 26.203125 C 48.222656 25.84375 48.914062 25.515625 49.625 25.222656 C 50.332031 24.929688 51.054688 24.667969 51.789062 24.445312 C 52.523438 24.222656 53.269531 24.039062 54.019531 23.886719 C 54.773438 23.738281 55.53125 23.625 56.296875 23.550781 C 57.058594 23.476562 57.824219 23.4375 58.59375 23.4375 Z M 58.59375 0 C 57.058594 0 55.527344 0.0742188 54 0.226562 C 52.472656 0.375 50.953125 0.601562 49.449219 0.902344 C 47.941406 1.199219 46.457031 1.574219 44.988281 2.019531 C 43.515625 2.464844 42.074219 2.980469 40.65625 3.566406 C 39.238281 4.15625 37.851562 4.8125 36.496094 5.535156 C 35.144531 6.257812 33.828125 7.046875 32.550781 7.898438 C 31.273438 8.753906 30.042969 9.667969 28.855469 10.640625 C 27.667969 11.613281 26.535156 12.644531 25.449219 13.730469 C 24.363281 14.816406 23.332031 15.949219 22.359375 17.136719 C 21.386719 18.324219 20.472656 19.554688 19.617188 20.832031 C 18.765625 22.109375 17.976562 23.425781 17.253906 24.777344 C 16.53125 26.132812 15.875 27.519531 15.285156 28.9375 C 14.699219 30.355469 14.183594 31.796875 13.738281 33.269531 C 13.292969 34.738281 12.917969 36.222656 12.621094 37.730469 C 12.320312 39.234375 12.09375 40.753906 11.945312 42.28125 C 11.792969 43.808594 11.71875 45.339844 11.71875 46.875 L 11.71875 328.125 C 11.71875 329.660156 11.792969 331.191406 11.945312 332.71875 C 12.09375 334.246094 12.320312 335.765625 12.621094 337.269531 C 12.917969 338.777344 13.292969 340.261719 13.738281 341.730469 C 14.183594 343.199219 14.699219 344.644531 15.285156 346.0625 C 15.875 347.480469 16.53125 348.867188 17.253906 350.222656 C 17.976562 351.574219 18.765625 352.890625 19.617188 354.167969 C 20.472656 355.445312 21.386719 356.675781 22.359375 357.863281 C 23.332031 359.050781 24.363281 360.183594 25.449219 361.269531 C 26.535156 362.355469 27.667969 363.386719 28.855469 364.359375 C 30.042969 365.332031 31.273438 366.246094 32.550781 367.101562 C 33.828125 367.953125 35.144531 368.742188 36.496094 369.464844 C 37.851562 370.1875 39.238281 370.84375 40.65625 371.433594 C 42.074219 372.019531 43.515625 372.535156 44.988281 372.980469 C 46.457031 373.425781 47.941406 373.800781 49.449219 374.097656 C 50.953125 374.398438 52.472656 374.625 54 374.773438 C 55.527344 374.925781 57.058594 375 58.59375 375 L 316.40625 375 C 317.941406 375 319.472656 374.925781 321 374.773438 C 322.527344 374.625 324.046875 374.398438 325.550781 374.097656 C 327.058594 373.800781 328.542969 373.425781 330.011719 372.980469 C 331.480469 372.535156 332.925781 372.019531 334.34375 371.433594 C 335.761719 370.84375 337.148438 370.1875 338.503906 369.464844 C 339.855469 368.742188 341.171875 367.953125 342.449219 367.101562 C 343.726562 366.246094 344.957031 365.332031 346.144531 364.359375 C 347.332031 363.386719 348.464844 362.355469 349.550781 361.269531 C 350.636719 360.183594 351.667969 359.050781 352.640625 357.863281 C 353.613281 356.675781 354.527344 355.445312 355.382812 354.167969 C 356.234375 352.890625 357.023438 351.574219 357.746094 350.222656 C 358.46875 348.867188 359.125 347.480469 359.714844 346.0625 C 360.300781 344.644531 360.816406 343.199219 361.261719 341.730469 C 361.707031 340.261719 362.082031 338.777344 362.378906 337.269531 C 362.679688 335.765625 362.90625 334.246094 363.054688 332.71875 C 363.207031 331.191406 363.28125 329.660156 363.28125 328.125 L 363.28125 46.875 C 363.28125 45.339844 363.207031 43.808594 363.054688 42.28125 C 362.90625 40.753906 362.679688 39.234375 362.378906 37.730469 C 362.082031 36.222656 361.707031 34.738281 361.261719 33.269531 C 360.816406 31.796875 360.300781 30.355469 359.714844 28.9375 C 359.125 27.519531 358.46875 26.132812 357.746094 24.777344 C 357.023438 23.425781 356.234375 22.109375 355.382812 20.832031 C 354.527344 19.554688 353.613281 18.324219 352.640625 17.136719 C 351.667969 15.949219 350.636719 14.816406 349.550781 13.730469 C 348.464844 12.644531 347.332031 11.613281 346.144531 10.640625 C 344.957031 9.667969 343.726562 8.753906 342.449219 7.898438 C 341.171875 7.046875 339.855469 6.257812 338.503906 5.535156 C 337.148438 4.8125 335.761719 4.15625 334.34375 3.566406 C 332.925781 2.980469 331.480469 2.464844 330.011719 2.019531 C 328.542969 1.574219 327.058594 1.199219 325.550781 0.902344 C 324.046875 0.601562 322.527344 0.375 321 0.226562 C 319.472656 0.0742188 317.941406 0 316.40625 0 Z M 58.59375 0 " fill-opacity="1" fill-rule="nonzero"/><path fill="#ffffff" d="M 152.34375 70.3125 C 152.34375 69.542969 152.382812 68.777344 152.457031 68.015625 C 152.53125 67.25 152.644531 66.492188 152.792969 65.738281 C 152.945312 64.988281 153.128906 64.242188 153.351562 63.507812 C 153.574219 62.773438 153.835938 62.050781 154.128906 61.34375 C 154.421875 60.632812 154.75 59.941406 155.109375 59.265625 C 155.472656 58.585938 155.867188 57.929688 156.292969 57.292969 C 156.71875 56.652344 157.175781 56.039062 157.664062 55.445312 C 158.152344 54.851562 158.664062 54.28125 159.207031 53.738281 C 159.75 53.195312 160.320312 52.683594 160.914062 52.195312 C 161.507812 51.707031 162.121094 51.25 162.761719 50.824219 C 163.398438 50.398438 164.054688 50.003906 164.734375 49.640625 C 165.410156 49.28125 166.101562 48.953125 166.8125 48.660156 C 167.519531 48.367188 168.242188 48.105469 168.976562 47.882812 C 169.710938 47.660156 170.457031 47.476562 171.207031 47.324219 C 171.960938 47.175781 172.71875 47.0625 173.484375 46.988281 C 174.246094 46.914062 175.011719 46.875 175.78125 46.875 L 199.21875 46.875 C 199.988281 46.875 200.753906 46.914062 201.515625 46.988281 C 202.28125 47.0625 203.039062 47.175781 203.792969 47.324219 C 204.542969 47.476562 205.289062 47.660156 206.023438 47.882812 C 206.757812 48.105469 207.480469 48.367188 208.1875 48.660156 C 208.898438 48.953125 209.589844 49.28125 210.265625 49.640625 C 210.945312 50.003906 211.601562 50.398438 212.238281 50.824219 C 212.878906 51.25 213.492188 51.707031 214.085938 52.195312 C 214.679688 52.683594 215.25 53.195312 215.792969 53.738281 C 216.335938 54.28125 216.847656 54.851562 217.335938 55.445312 C 217.824219 56.039062 218.28125 56.652344 218.707031 57.292969 C 219.132812 57.929688 219.527344 58.585938 219.890625 59.265625 C 220.25 59.941406 220.578125 60.632812 220.871094 61.34375 C 221.164062 62.050781 221.425781 62.773438 221.648438 63.507812 C 221.871094 64.242188 222.054688 64.988281 222.207031 65.738281 C 222.355469 66.492188 222.46875 67.25 222.542969 68.015625 C 222.617188 68.777344 222.65625 69.542969 222.65625 70.3125 L 222.65625 140.625 C 222.65625 141.394531 222.617188 142.160156 222.542969 142.921875 C 222.46875 143.6875 222.355469 144.445312 222.207031 145.199219 C 222.054688 145.949219 221.871094 146.695312 221.648438 147.429688 C 221.425781 148.164062 221.164062 148.886719 220.871094 149.59375 C 220.578125 150.304688 220.25 150.996094 219.890625 151.671875 C 219.527344 152.351562 219.132812 153.007812 218.707031 153.644531 C 218.28125 154.285156 217.824219 154.898438 217.335938 155.492188 C 216.847656 156.085938 216.335938 156.65625 215.792969 157.199219 C 215.25 157.742188 214.679688 158.253906 214.085938 158.742188 C 213.492188 159.230469 212.878906 159.6875 212.238281 160.113281 C 211.601562 160.539062 210.945312 160.933594 210.265625 161.296875 C 209.589844 161.65625 208.898438 161.984375 208.1875 162.277344 C 207.480469 162.570312 206.757812 162.832031 206.023438 163.054688 C 205.289062 163.277344 204.542969 163.460938 203.792969 163.613281 C 203.039062 163.761719 202.28125 163.875 201.515625 163.949219 C 200.753906 164.023438 199.988281 164.0625 199.21875 164.0625 L 175.78125 164.0625 C 175.011719 164.0625 174.246094 164.023438 173.484375 163.949219 C 172.71875 163.875 171.960938 163.761719 171.207031 163.613281 C 170.457031 163.460938 169.710938 163.277344 168.976562 163.054688 C 168.242188 162.832031 167.519531 162.570312 166.8125 162.277344 C 166.101562 161.984375 165.410156 161.65625 164.734375 161.296875 C 164.054688 160.933594 163.398438 160.539062 162.761719 160.113281 C 162.121094 159.6875 161.507812 159.230469 160.914062 158.742188 C 160.320312 158.253906 159.75 157.742188 159.207031 157.199219 C 158.664062 156.65625 158.152344 156.085938 157.664062 155.492188 C 157.175781 154.898438 156.71875 154.285156 156.292969 153.644531 C 155.867188 153.007812 155.472656 152.351562 155.109375 151.671875 C 154.75 150.996094 154.421875 150.304688 154.128906 149.59375 C 153.835938 148.886719 153.574219 148.164062 153.351562 147.429688 C 153.128906 146.695312 152.945312 145.949219 152.792969 145.199219 C 152.644531 144.445312 152.53125 143.6875 152.457031 142.921875 C 152.382812 142.160156 152.34375 141.394531 152.34375 140.625 Z M 58.59375 70.3125 C 58.59375 69.542969 58.632812 68.777344 58.707031 68.015625 C 58.78125 67.25 58.894531 66.492188 59.042969 65.738281 C 59.195312 64.988281 59.378906 64.242188 59.601562 63.507812 C 59.824219 62.773438 60.085938 62.050781 60.378906 61.34375 C 60.671875 60.632812 61 59.941406 61.359375 59.265625 C 61.722656 58.585938 62.117188 57.929688 62.542969 57.292969 C 62.96875 56.652344 63.425781 56.039062 63.914062 55.445312 C 64.402344 54.851562 64.914062 54.28125 65.457031 53.738281 C 66 53.195312 66.570312 52.683594 67.164062 52.195312 C 67.757812 51.707031 68.371094 51.25 69.011719 50.824219 C 69.648438 50.398438 70.304688 50.003906 70.984375 49.640625 C 71.660156 49.28125 72.351562 48.953125 73.0625 48.660156 C 73.769531 48.367188 74.492188 48.105469 75.226562 47.882812 C 75.960938 47.660156 76.707031 47.476562 77.457031 47.324219 C 78.210938 47.175781 78.96875 47.0625 79.734375 46.988281 C 80.496094 46.914062 81.261719 46.875 82.03125 46.875 L 105.46875 46.875 C 106.238281 46.875 107.003906 46.914062 107.765625 46.988281 C 108.53125 47.0625 109.289062 47.175781 110.042969 47.324219 C 110.792969 47.476562 111.539062 47.660156 112.273438 47.882812 C 113.007812 48.105469 113.730469 48.367188 114.4375 48.660156 C 115.148438 48.953125 115.839844 49.28125 116.515625 49.640625 C 117.195312 50.003906 117.851562 50.398438 118.488281 50.824219 C 119.128906 51.25 119.742188 51.707031 120.335938 52.195312 C 120.929688 52.683594 121.5 53.195312 122.042969 53.738281 C 122.585938 54.28125 123.097656 54.851562 123.585938 55.445312 C 124.074219 56.039062 124.53125 56.652344 124.957031 57.292969 C 125.382812 57.929688 125.777344 58.585938 126.140625 59.265625 C 126.5 59.941406 126.828125 60.632812 127.121094 61.34375 C 127.414062 62.050781 127.675781 62.773438 127.898438 63.507812 C 128.121094 64.242188 128.304688 64.988281 128.457031 65.738281 C 128.605469 66.492188 128.71875 67.25 128.792969 68.015625 C 128.867188 68.777344 128.90625 69.542969 128.90625 70.3125 L 128.90625 234.375 C 128.90625 235.144531 128.867188 235.910156 128.792969 236.671875 C 128.71875 237.4375 128.605469 238.195312 128.457031 238.949219 C 128.304688 239.699219 128.121094 240.445312 127.898438 241.179688 C 127.675781 241.914062 127.414062 242.636719 127.121094 243.34375 C 126.828125 244.054688 126.5 244.746094 126.140625 245.421875 C 125.777344 246.101562 125.382812 246.757812 124.957031 247.394531 C 124.53125 248.035156 124.074219 248.648438 123.585938 249.242188 C 123.097656 249.835938 122.585938 250.40625 122.042969 250.949219 C 121.5 251.492188 120.929688 252.003906 120.335938 252.492188 C 119.742188 252.980469 119.128906 253.4375 118.488281 253.863281 C 117.851562 254.289062 117.195312 254.683594 116.515625 255.046875 C 115.839844 255.40625 115.148438 255.734375 114.4375 256.027344 C 113.730469 256.320312 113.007812 256.582031 112.273438 256.804688 C 111.539062 257.027344 110.792969 257.210938 110.042969 257.363281 C 109.289062 257.511719 108.53125 257.625 107.765625 257.699219 C 107.003906 257.773438 106.238281 257.8125 105.46875 257.8125 L 82.03125 257.8125 C 81.261719 257.8125 80.496094 257.773438 79.734375 257.699219 C 78.96875 257.625 78.210938 257.511719 77.457031 257.363281 C 76.707031 257.210938 75.960938 257.027344 75.226562 256.804688 C 74.492188 256.582031 73.769531 256.320312 73.0625 256.027344 C 72.351562 255.734375 71.660156 255.40625 70.984375 255.046875 C 70.304688 254.683594 69.648438 254.289062 69.011719 253.863281 C 68.371094 253.4375 67.757812 252.980469 67.164062 252.492188 C 66.570312 252.003906 66 251.492188 65.457031 250.949219 C 64.914062 250.40625 64.402344 249.835938 63.914062 249.242188 C 63.425781 248.648438 62.96875 248.035156 62.542969 247.394531 C 62.117188 246.757812 61.722656 246.101562 61.359375 245.421875 C 61 244.746094 60.671875 244.054688 60.378906 243.34375 C 60.085938 242.636719 59.824219 241.914062 59.601562 241.179688 C 59.378906 240.445312 59.195312 239.699219 59.042969 238.949219 C 58.894531 238.195312 58.78125 237.4375 58.707031 236.671875 C 58.632812 235.910156 58.59375 235.144531 58.59375 234.375 Z M 246.09375 70.3125 C 246.09375 69.542969 246.132812 68.777344 246.207031 68.015625 C 246.28125 67.25 246.394531 66.492188 246.542969 65.738281 C 246.695312 64.988281 246.878906 64.242188 247.101562 63.507812 C 247.324219 62.773438 247.585938 62.050781 247.878906 61.34375 C 248.171875 60.632812 248.5 59.941406 248.859375 59.265625 C 249.222656 58.585938 249.617188 57.929688 250.042969 57.292969 C 250.46875 56.652344 250.925781 56.039062 251.414062 55.445312 C 251.902344 54.851562 252.414062 54.28125 252.957031 53.738281 C 253.5 53.195312 254.070312 52.683594 254.664062 52.195312 C 255.257812 51.707031 255.871094 51.25 256.511719 50.824219 C 257.148438 50.398438 257.804688 50.003906 258.484375 49.640625 C 259.160156 49.28125 259.851562 48.953125 260.5625 48.660156 C 261.269531 48.367188 261.992188 48.105469 262.726562 47.882812 C 263.460938 47.660156 264.207031 47.476562 264.957031 47.324219 C 265.710938 47.175781 266.46875 47.0625 267.234375 46.988281 C 267.996094 46.914062 268.761719 46.875 269.53125 46.875 L 292.96875 46.875 C 293.738281 46.875 294.503906 46.914062 295.265625 46.988281 C 296.03125 47.0625 296.789062 47.175781 297.542969 47.324219 C 298.292969 47.476562 299.039062 47.660156 299.773438 47.882812 C 300.507812 48.105469 301.230469 48.367188 301.9375 48.660156 C 302.648438 48.953125 303.339844 49.28125 304.015625 49.640625 C 304.695312 50.003906 305.351562 50.398438 305.988281 50.824219 C 306.628906 51.25 307.242188 51.707031 307.835938 52.195312 C 308.429688 52.683594 309 53.195312 309.542969 53.738281 C 310.085938 54.28125 310.597656 54.851562 311.085938 55.445312 C 311.574219 56.039062 312.03125 56.652344 312.457031 57.292969 C 312.882812 57.929688 313.277344 58.585938 313.640625 59.265625 C 314 59.941406 314.328125 60.632812 314.621094 61.34375 C 314.914062 62.050781 315.175781 62.773438 315.398438 63.507812 C 315.621094 64.242188 315.804688 64.988281 315.957031 65.738281 C 316.105469 66.492188 316.21875 67.25 316.292969 68.015625 C 316.367188 68.777344 316.40625 69.542969 316.40625 70.3125 L 316.40625 304.6875 C 316.40625 305.457031 316.367188 306.222656 316.292969 306.984375 C 316.21875 307.75 316.105469 308.507812 315.957031 309.261719 C 315.804688 310.011719 315.621094 310.757812 315.398438 311.492188 C 315.175781 312.226562 314.914062 312.949219 314.621094 313.65625 C 314.328125 314.367188 314 315.058594 313.640625 315.734375 C 313.277344 316.414062 312.882812 317.070312 312.457031 317.707031 C 312.03125 318.347656 311.574219 318.960938 311.085938 319.554688 C 310.597656 320.148438 310.085938 320.71875 309.542969 321.261719 C 309 321.804688 308.429688 322.316406 307.835938 322.804688 C 307.242188 323.292969 306.628906 323.75 305.988281 324.175781 C 305.351562 324.601562 304.695312 324.996094 304.015625 325.359375 C 303.339844 325.71875 302.648438 326.046875 301.9375 326.339844 C 301.230469 326.632812 300.507812 326.894531 299.773438 327.117188 C 299.039062 327.339844 298.292969 327.523438 297.542969 327.675781 C 296.789062 327.824219 296.03125 327.9375 295.265625 328.011719 C 294.503906 328.085938 293.738281 328.125 292.96875 328.125 L 269.53125 328.125 C 268.761719 328.125 267.996094 328.085938 267.234375 328.011719 C 266.46875 327.9375 265.710938 327.824219 264.957031 327.675781 C 264.207031 327.523438 263.460938 327.339844 262.726562 327.117188 C 261.992188 326.894531 261.269531 326.632812 260.5625 326.339844 C 259.851562 326.046875 259.160156 325.71875 258.484375 325.359375 C 257.804688 324.996094 257.148438 324.601562 256.511719 324.175781 C 255.871094 323.75 255.257812 323.292969 254.664062 322.804688 C 254.070312 322.316406 253.5 321.804688 252.957031 321.261719 C 252.414062 320.71875 251.902344 320.148438 251.414062 319.554688 C 250.925781 318.960938 250.46875 318.347656 250.042969 317.707031 C 249.617188 317.070312 249.222656 316.414062 248.859375 315.734375 C 248.5 315.058594 248.171875 314.367188 247.878906 313.65625 C 247.585938 312.949219 247.324219 312.226562 247.101562 311.492188 C 246.878906 310.757812 246.695312 310.011719 246.542969 309.261719 C 246.394531 308.507812 246.28125 307.75 246.207031 306.984375 C 246.132812 306.222656 246.09375 305.457031 246.09375 304.6875 Z M 246.09375 70.3125 " fill-opacity="1" fill-rule="nonzero"/></svg>