<svg xmlns="http://www.w3.org/2000/svg" xmlns:xlink="http://www.w3.org/1999/xlink" width="500" zoomAndPan="magnify" viewBox="0 0 375 374.999991" height="500" preserveAspectRatio="xMidYMid meet" version="1.0"><path fill="#5b696f" d="M 188.695312 46.851562 L 190.78125 46.851562 C 210.046875 46.921875 307.664062 47.625 333.984375 54.703125 C 335.964844 55.242188 337.902344 55.90625 339.796875 56.695312 C 341.691406 57.488281 343.523438 58.398438 345.300781 59.429688 C 347.074219 60.460938 348.773438 61.601562 350.398438 62.855469 C 352.027344 64.105469 353.5625 65.460938 355.011719 66.914062 C 356.460938 68.367188 357.808594 69.910156 359.054688 71.539062 C 360.300781 73.171875 361.4375 74.875 362.460938 76.652344 C 363.488281 78.429688 364.390625 80.269531 365.175781 82.164062 C 365.960938 84.0625 366.617188 86 367.148438 87.984375 C 369.515625 96.890625 371.179688 108.679688 372.304688 120.84375 L 372.539062 123.28125 L 373.054688 129.375 L 373.242188 131.8125 C 374.765625 153.234375 374.953125 173.296875 374.976562 177.679688 L 374.976562 179.4375 C 374.953125 183.984375 374.742188 205.40625 373.054688 227.71875 L 372.867188 230.179688 L 372.65625 232.617188 C 371.484375 246.023438 369.75 259.335938 367.148438 269.132812 C 366.617188 271.117188 365.960938 273.054688 365.175781 274.953125 C 364.390625 276.847656 363.488281 278.6875 362.460938 280.464844 C 361.4375 282.242188 360.300781 283.945312 359.054688 285.578125 C 357.808594 287.207031 356.460938 288.75 355.011719 290.203125 C 353.5625 291.65625 352.027344 293.011719 350.398438 294.261719 C 348.773438 295.515625 347.074219 296.65625 345.300781 297.6875 C 343.523438 298.71875 341.691406 299.628906 339.796875 300.421875 C 337.902344 301.210938 335.964844 301.875 333.984375 302.414062 C 306.796875 309.726562 203.460938 310.242188 189.140625 310.265625 L 185.8125 310.265625 C 178.570312 310.265625 148.617188 310.125 117.210938 309.046875 L 113.226562 308.90625 L 111.1875 308.8125 L 103.171875 308.484375 C 77.15625 307.335938 52.382812 305.484375 40.96875 302.390625 C 38.988281 301.851562 37.050781 301.191406 35.160156 300.398438 C 33.265625 299.609375 31.429688 298.699219 29.65625 297.667969 C 27.882812 296.640625 26.183594 295.5 24.558594 294.246094 C 22.933594 292.996094 21.394531 291.640625 19.945312 290.1875 C 18.496094 288.738281 17.148438 287.195312 15.902344 285.566406 C 14.65625 283.9375 13.519531 282.234375 12.496094 280.457031 C 11.46875 278.679688 10.566406 276.84375 9.78125 274.949219 C 8.996094 273.054688 8.335938 271.113281 7.804688 269.132812 C 5.203125 259.359375 3.46875 246.023438 2.296875 232.617188 L 2.109375 230.15625 L 1.921875 227.71875 C 0.757812 211.832031 0.117188 195.925781 0 180 L 0 177.117188 C 0.046875 172.078125 0.234375 154.664062 1.5 135.445312 L 1.664062 133.03125 L 1.734375 131.8125 L 1.921875 129.375 L 2.4375 123.28125 L 2.671875 120.84375 C 3.796875 108.679688 5.460938 96.867188 7.828125 87.984375 C 8.359375 86 9.015625 84.0625 9.800781 82.164062 C 10.585938 80.269531 11.488281 78.429688 12.515625 76.652344 C 13.539062 74.875 14.675781 73.171875 15.921875 71.539062 C 17.167969 69.910156 18.515625 68.367188 19.964844 66.914062 C 21.414062 65.460938 22.949219 64.105469 24.578125 62.855469 C 26.203125 61.601562 27.902344 60.460938 29.675781 59.429688 C 31.453125 58.398438 33.285156 57.488281 35.179688 56.695312 C 37.074219 55.90625 39.011719 55.242188 40.992188 54.703125 C 52.40625 51.65625 77.179688 49.78125 103.195312 48.609375 L 107.179688 48.445312 L 113.226562 48.234375 L 117.234375 48.070312 C 139.542969 47.351562 161.855469 46.953125 184.171875 46.875 Z M 150 122.085938 L 150 235.007812 L 247.429688 178.570312 Z M 150 122.085938 " fill-opacity="1" fill-rule="nonzero"/></svg>